<svg viewBox="0 0 1200 1200" version="1.1" xmlns="http://www.w3.org/2000/svg" xmlns:xlink="http://www.w3.org/1999/xlink" xml:space="preserve" fill="#f3ba4c">
    <g transform="matrix(3.74551,0,0,5.61434,252.045,126.409)">
        <rect x="-67.293" y="-22.515" width="320.383" height="213.738" style="fill:none;"/>
        <g transform="matrix(11.4209,0,0,-7.61928,-466.726,488.176)">
            <path d="M59,44L39,44C38.451,44 38,44.451 38,45L38,61C38,61.549 38.451,62 39,62L59,62C59.549,62 60,61.549 60,61L60,45C60,44.451 59.549,44 59,44ZM58,48L56,48L56,46L58,46L58,48ZM52,48L52,46L54,46L54,48L52,48ZM50,48L48,48L48,46L50,46L50,48ZM46,48L44,48L44,46L46,46L46,48ZM48,50L48,56L40,56L40,50L48,50ZM46,58L46,60L44,60L44,58L46,58ZM48,58L50,58L50,60L48,60L48,58ZM52,58L54,58L54,60L52,60L52,58ZM50,56L50,50L58,50L58,56L50,56ZM42,46L42,48L40,48L40,46L42,46ZM40,58L42,58L42,60L40,60L40,58ZM56,60L56,58L58,58L58,60L56,60Z" style="fill-rule:nonzero;"/>
        </g>
    </g>
</svg>
